<svg width="104" height="14" viewBox="0 0 104 14" fill="none" xmlns="http://www.w3.org/2000/svg">
<mask id="path-1-outside-1_29_5" maskUnits="userSpaceOnUse" x="0" y="0" width="104" height="14" fill="black">
<rect fill="white" width="104" height="14"/>
<path d="M4.82818 7L7.27927 12.7252H4.45109L2 7L4.45109 1.27481H7.27927L4.82818 7Z"/>
<path d="M9.45966 12.5267L9.95278 9.50382C11.0164 9.77863 11.9784 9.91603 12.839 9.91603C13.2741 9.91603 13.656 9.91094 13.9847 9.90076C14.3232 9.88041 14.6229 9.84987 14.884 9.80916V8.89313L13.3176 8.75572C12.6117 8.68448 12.0219 8.56234 11.5482 8.38931C11.0744 8.21628 10.6925 7.98219 10.4024 7.68702C10.122 7.38168 9.91894 7.02036 9.79324 6.60305C9.67721 6.17557 9.6192 5.67684 9.6192 5.10687C9.6192 4.32315 9.69655 3.67176 9.85125 3.15267C10.006 2.62341 10.2525 2.20102 10.5909 1.8855C10.9293 1.5598 11.3644 1.33079 11.8962 1.19847C12.4377 1.06616 13.0952 1 13.8687 1C15.4061 1 16.7984 1.15267 18.0457 1.45801L17.6106 4.38931C16.5277 4.20611 15.6623 4.1145 15.0145 4.1145C14.3667 4.1145 13.8155 4.14504 13.3611 4.20611V5.10687L14.6084 5.22901C15.3722 5.31043 16.0104 5.44784 16.5229 5.64122C17.0353 5.82443 17.4462 6.0687 17.7556 6.37405C18.0747 6.67939 18.2971 7.04071 18.4228 7.45801C18.5582 7.87532 18.6259 8.35369 18.6259 8.89313C18.6259 9.66667 18.5292 10.3181 18.3358 10.8473C18.1424 11.3766 17.9104 11.7786 17.6396 12.0534C17.4172 12.2774 17.1417 12.4555 16.8129 12.5878C16.4842 12.7099 16.1361 12.8015 15.7687 12.8626C15.4013 12.9237 15.029 12.9593 14.6519 12.9695C14.2845 12.9898 13.9509 13 13.6512 13C12.897 13 12.1718 12.9593 11.4756 12.8779C10.7795 12.7964 10.1075 12.6794 9.45966 12.5267Z"/>
<path d="M28.3487 5.74809H24.8679V4.20611H28.6098L29.0449 1.27481H21.3871V12.7252H29.1319V9.79389H24.8679V8.40458H28.3487V5.74809Z"/>
<path d="M37.6272 9.35114V8.8626H36.7425V6.05344H40.934V12.1756C39.561 12.7252 38.1348 13 36.6555 13C35.6402 13 34.799 12.8728 34.1319 12.6183C33.4744 12.3639 32.9523 11.9873 32.5655 11.4886C32.1788 10.9796 31.908 10.3537 31.7533 9.61069C31.6083 8.85751 31.5358 7.98219 31.5358 6.98473C31.5358 5.92621 31.6276 5.02036 31.8113 4.26718C31.995 3.50382 32.2996 2.88295 32.725 2.40458C33.1505 1.91603 33.7161 1.5598 34.422 1.33588C35.1278 1.11196 36.0028 1 37.0471 1C37.2791 1 37.5499 1.01527 37.8593 1.0458C38.1784 1.06616 38.4974 1.10178 38.8165 1.15267C39.1356 1.19338 39.4353 1.24427 39.7157 1.30534C40.0058 1.35623 40.2379 1.41221 40.4119 1.47328L39.8898 4.28244C39.416 4.20102 38.9664 4.13995 38.5409 4.09924C38.1155 4.04835 37.7191 4.0229 37.3517 4.0229C36.5878 4.0229 36.0512 4.08397 35.7418 4.20611C35.4324 4.32824 35.2777 4.57252 35.2777 4.93893V10.1298H36.4234C36.8489 10.1298 37.1534 10.084 37.3372 9.99237C37.5305 9.89058 37.6272 9.67684 37.6272 9.35114Z"/>
<path d="M53.5191 12.7252V1.27481H50.0382V5.32061H47.4276V1.27481H43.9468V12.7252H47.4276V8.67939H50.0382V12.7252H53.5191Z"/>
<path d="M57.7871 10.0076C58.1738 10.0076 58.4929 10.1399 58.7443 10.4046C59.0053 10.6692 59.1359 11.0153 59.1359 11.4427C59.1359 11.8702 59.0053 12.2163 58.7443 12.4809C58.4929 12.7455 58.1738 12.8779 57.7871 12.8779C57.4003 12.8779 57.0764 12.7405 56.8153 12.4656C56.5543 12.1908 56.4237 11.8499 56.4237 11.4427C56.4237 11.0153 56.5543 10.6692 56.8153 10.4046C57.0764 10.1399 57.4003 10.0076 57.7871 10.0076Z"/>
<path d="M66.904 12.7252H62.0308V1.27481H66.904C67.8805 1.27481 68.6976 1.38168 69.3551 1.59542C70.0125 1.79898 70.5395 2.12977 70.9359 2.58779C71.3324 3.0458 71.6128 3.63613 71.7771 4.35878C71.9512 5.08142 72.0382 5.95674 72.0382 6.98473C72.0382 8.01272 71.9512 8.89313 71.7771 9.62595C71.6128 10.3486 71.3324 10.9389 70.9359 11.3969C70.5395 11.855 70.0125 12.1908 69.3551 12.4046C68.6976 12.6183 67.8805 12.7252 66.904 12.7252ZM66.962 4.20611H65.5116V9.79389H66.962C67.4454 9.79389 67.7887 9.73791 67.9917 9.62595C68.2044 9.50382 68.3108 9.2341 68.3108 8.81679V5.18321C68.3108 4.7659 68.2044 4.50127 67.9917 4.38931C67.7887 4.26718 67.4454 4.20611 66.962 4.20611Z"/>
<path d="M81.6745 5.74809H78.1937V4.20611H81.9356L82.3707 1.27481H74.7128V12.7252H82.4577V9.79389H78.1937V8.40458H81.6745V5.74809Z"/>
<path d="M89.8217 8.54198H89.6622L88.1828 1.27481H84.5135L87.2111 12.7252H92.2873L94.985 1.27481H91.3156L89.8217 8.54198Z"/>
<path d="M99.5489 1.27481L102 7L99.5489 12.7252H96.7207L99.1718 7L96.7207 1.27481H99.5489Z"/>
</mask>
<path d="M4.82818 7L7.27927 12.7252H4.45109L2 7L4.45109 1.27481H7.27927L4.82818 7Z" fill="#141414"/>
<path d="M9.45966 12.5267L9.95278 9.50382C11.0164 9.77863 11.9784 9.91603 12.839 9.91603C13.2741 9.91603 13.656 9.91094 13.9847 9.90076C14.3232 9.88041 14.6229 9.84987 14.884 9.80916V8.89313L13.3176 8.75572C12.6117 8.68448 12.0219 8.56234 11.5482 8.38931C11.0744 8.21628 10.6925 7.98219 10.4024 7.68702C10.122 7.38168 9.91894 7.02036 9.79324 6.60305C9.67721 6.17557 9.6192 5.67684 9.6192 5.10687C9.6192 4.32315 9.69655 3.67176 9.85125 3.15267C10.006 2.62341 10.2525 2.20102 10.5909 1.8855C10.9293 1.5598 11.3644 1.33079 11.8962 1.19847C12.4377 1.06616 13.0952 1 13.8687 1C15.4061 1 16.7984 1.15267 18.0457 1.45801L17.6106 4.38931C16.5277 4.20611 15.6623 4.1145 15.0145 4.1145C14.3667 4.1145 13.8155 4.14504 13.3611 4.20611V5.10687L14.6084 5.22901C15.3722 5.31043 16.0104 5.44784 16.5229 5.64122C17.0353 5.82443 17.4462 6.0687 17.7556 6.37405C18.0747 6.67939 18.2971 7.04071 18.4228 7.45801C18.5582 7.87532 18.6259 8.35369 18.6259 8.89313C18.6259 9.66667 18.5292 10.3181 18.3358 10.8473C18.1424 11.3766 17.9104 11.7786 17.6396 12.0534C17.4172 12.2774 17.1417 12.4555 16.8129 12.5878C16.4842 12.7099 16.1361 12.8015 15.7687 12.8626C15.4013 12.9237 15.029 12.9593 14.6519 12.9695C14.2845 12.9898 13.9509 13 13.6512 13C12.897 13 12.1718 12.9593 11.4756 12.8779C10.7795 12.7964 10.1075 12.6794 9.45966 12.5267Z" fill="#141414"/>
<path d="M28.3487 5.74809H24.8679V4.20611H28.6098L29.0449 1.27481H21.3871V12.7252H29.1319V9.79389H24.8679V8.40458H28.3487V5.74809Z" fill="#141414"/>
<path d="M37.6272 9.35114V8.8626H36.7425V6.05344H40.934V12.1756C39.561 12.7252 38.1348 13 36.6555 13C35.6402 13 34.799 12.8728 34.1319 12.6183C33.4744 12.3639 32.9523 11.9873 32.5655 11.4886C32.1788 10.9796 31.908 10.3537 31.7533 9.61069C31.6083 8.85751 31.5358 7.98219 31.5358 6.98473C31.5358 5.92621 31.6276 5.02036 31.8113 4.26718C31.995 3.50382 32.2996 2.88295 32.725 2.40458C33.1505 1.91603 33.7161 1.5598 34.422 1.33588C35.1278 1.11196 36.0028 1 37.0471 1C37.2791 1 37.5499 1.01527 37.8593 1.0458C38.1784 1.06616 38.4974 1.10178 38.8165 1.15267C39.1356 1.19338 39.4353 1.24427 39.7157 1.30534C40.0058 1.35623 40.2379 1.41221 40.4119 1.47328L39.8898 4.28244C39.416 4.20102 38.9664 4.13995 38.5409 4.09924C38.1155 4.04835 37.7191 4.0229 37.3517 4.0229C36.5878 4.0229 36.0512 4.08397 35.7418 4.20611C35.4324 4.32824 35.2777 4.57252 35.2777 4.93893V10.1298H36.4234C36.8489 10.1298 37.1534 10.084 37.3372 9.99237C37.5305 9.89058 37.6272 9.67684 37.6272 9.35114Z" fill="#141414"/>
<path d="M53.5191 12.7252V1.27481H50.0382V5.32061H47.4276V1.27481H43.9468V12.7252H47.4276V8.67939H50.0382V12.7252H53.5191Z" fill="#141414"/>
<path d="M57.7871 10.0076C58.1738 10.0076 58.4929 10.1399 58.7443 10.4046C59.0053 10.6692 59.1359 11.0153 59.1359 11.4427C59.1359 11.8702 59.0053 12.2163 58.7443 12.4809C58.4929 12.7455 58.1738 12.8779 57.7871 12.8779C57.4003 12.8779 57.0764 12.7405 56.8153 12.4656C56.5543 12.1908 56.4237 11.8499 56.4237 11.4427C56.4237 11.0153 56.5543 10.6692 56.8153 10.4046C57.0764 10.1399 57.4003 10.0076 57.7871 10.0076Z" fill="#141414"/>
<path d="M66.904 12.7252H62.0308V1.27481H66.904C67.8805 1.27481 68.6976 1.38168 69.3551 1.59542C70.0125 1.79898 70.5395 2.12977 70.9359 2.58779C71.3324 3.0458 71.6128 3.63613 71.7771 4.35878C71.9512 5.08142 72.0382 5.95674 72.0382 6.98473C72.0382 8.01272 71.9512 8.89313 71.7771 9.62595C71.6128 10.3486 71.3324 10.9389 70.9359 11.3969C70.5395 11.855 70.0125 12.1908 69.3551 12.4046C68.6976 12.6183 67.8805 12.7252 66.904 12.7252ZM66.962 4.20611H65.5116V9.79389H66.962C67.4454 9.79389 67.7887 9.73791 67.9917 9.62595C68.2044 9.50382 68.3108 9.2341 68.3108 8.81679V5.18321C68.3108 4.7659 68.2044 4.50127 67.9917 4.38931C67.7887 4.26718 67.4454 4.20611 66.962 4.20611Z" fill="#141414"/>
<path d="M81.6745 5.74809H78.1937V4.20611H81.9356L82.3707 1.27481H74.7128V12.7252H82.4577V9.79389H78.1937V8.40458H81.6745V5.74809Z" fill="#141414"/>
<path d="M89.8217 8.54198H89.6622L88.1828 1.27481H84.5135L87.2111 12.7252H92.2873L94.985 1.27481H91.3156L89.8217 8.54198Z" fill="#141414"/>
<path d="M99.5489 1.27481L102 7L99.5489 12.7252H96.7207L99.1718 7L96.7207 1.27481H99.5489Z" fill="#141414"/>
<path d="M4.82818 7L7.27927 12.7252H4.45109L2 7L4.45109 1.27481H7.27927L4.82818 7Z" stroke="#800ADD" stroke-width="2" mask="url(#path-1-outside-1_29_5)"/>
<path d="M9.45966 12.5267L9.95278 9.50382C11.0164 9.77863 11.9784 9.91603 12.839 9.91603C13.2741 9.91603 13.656 9.91094 13.9847 9.90076C14.3232 9.88041 14.6229 9.84987 14.884 9.80916V8.89313L13.3176 8.75572C12.6117 8.68448 12.0219 8.56234 11.5482 8.38931C11.0744 8.21628 10.6925 7.98219 10.4024 7.68702C10.122 7.38168 9.91894 7.02036 9.79324 6.60305C9.67721 6.17557 9.6192 5.67684 9.6192 5.10687C9.6192 4.32315 9.69655 3.67176 9.85125 3.15267C10.006 2.62341 10.2525 2.20102 10.5909 1.8855C10.9293 1.5598 11.3644 1.33079 11.8962 1.19847C12.4377 1.06616 13.0952 1 13.8687 1C15.4061 1 16.7984 1.15267 18.0457 1.45801L17.6106 4.38931C16.5277 4.20611 15.6623 4.1145 15.0145 4.1145C14.3667 4.1145 13.8155 4.14504 13.3611 4.20611V5.10687L14.6084 5.22901C15.3722 5.31043 16.0104 5.44784 16.5229 5.64122C17.0353 5.82443 17.4462 6.0687 17.7556 6.37405C18.0747 6.67939 18.2971 7.04071 18.4228 7.45801C18.5582 7.87532 18.6259 8.35369 18.6259 8.89313C18.6259 9.66667 18.5292 10.3181 18.3358 10.8473C18.1424 11.3766 17.9104 11.7786 17.6396 12.0534C17.4172 12.2774 17.1417 12.4555 16.8129 12.5878C16.4842 12.7099 16.1361 12.8015 15.7687 12.8626C15.4013 12.9237 15.029 12.9593 14.6519 12.9695C14.2845 12.9898 13.9509 13 13.6512 13C12.897 13 12.1718 12.9593 11.4756 12.8779C10.7795 12.7964 10.1075 12.6794 9.45966 12.5267Z" stroke="#800ADD" stroke-width="2" mask="url(#path-1-outside-1_29_5)"/>
<path d="M28.3487 5.74809H24.8679V4.20611H28.6098L29.0449 1.27481H21.3871V12.7252H29.1319V9.79389H24.8679V8.40458H28.3487V5.74809Z" stroke="#800ADD" stroke-width="2" mask="url(#path-1-outside-1_29_5)"/>
<path d="M37.6272 9.35114V8.8626H36.7425V6.05344H40.934V12.1756C39.561 12.7252 38.1348 13 36.6555 13C35.6402 13 34.799 12.8728 34.1319 12.6183C33.4744 12.3639 32.9523 11.9873 32.5655 11.4886C32.1788 10.9796 31.908 10.3537 31.7533 9.61069C31.6083 8.85751 31.5358 7.98219 31.5358 6.98473C31.5358 5.92621 31.6276 5.02036 31.8113 4.26718C31.995 3.50382 32.2996 2.88295 32.725 2.40458C33.1505 1.91603 33.7161 1.5598 34.422 1.33588C35.1278 1.11196 36.0028 1 37.0471 1C37.2791 1 37.5499 1.01527 37.8593 1.0458C38.1784 1.06616 38.4974 1.10178 38.8165 1.15267C39.1356 1.19338 39.4353 1.24427 39.7157 1.30534C40.0058 1.35623 40.2379 1.41221 40.4119 1.47328L39.8898 4.28244C39.416 4.20102 38.9664 4.13995 38.5409 4.09924C38.1155 4.04835 37.7191 4.0229 37.3517 4.0229C36.5878 4.0229 36.0512 4.08397 35.7418 4.20611C35.4324 4.32824 35.2777 4.57252 35.2777 4.93893V10.1298H36.4234C36.8489 10.1298 37.1534 10.084 37.3372 9.99237C37.5305 9.89058 37.6272 9.67684 37.6272 9.35114Z" stroke="#800ADD" stroke-width="2" mask="url(#path-1-outside-1_29_5)"/>
<path d="M53.5191 12.7252V1.27481H50.0382V5.32061H47.4276V1.27481H43.9468V12.7252H47.4276V8.67939H50.0382V12.7252H53.5191Z" stroke="#800ADD" stroke-width="2" mask="url(#path-1-outside-1_29_5)"/>
<path d="M57.7871 10.0076C58.1738 10.0076 58.4929 10.1399 58.7443 10.4046C59.0053 10.6692 59.1359 11.0153 59.1359 11.4427C59.1359 11.8702 59.0053 12.2163 58.7443 12.4809C58.4929 12.7455 58.1738 12.8779 57.7871 12.8779C57.4003 12.8779 57.0764 12.7405 56.8153 12.4656C56.5543 12.1908 56.4237 11.8499 56.4237 11.4427C56.4237 11.0153 56.5543 10.6692 56.8153 10.4046C57.0764 10.1399 57.4003 10.0076 57.7871 10.0076Z" stroke="#800ADD" stroke-width="2" mask="url(#path-1-outside-1_29_5)"/>
<path d="M66.904 12.7252H62.0308V1.27481H66.904C67.8805 1.27481 68.6976 1.38168 69.3551 1.59542C70.0125 1.79898 70.5395 2.12977 70.9359 2.58779C71.3324 3.0458 71.6128 3.63613 71.7771 4.35878C71.9512 5.08142 72.0382 5.95674 72.0382 6.98473C72.0382 8.01272 71.9512 8.89313 71.7771 9.62595C71.6128 10.3486 71.3324 10.9389 70.9359 11.3969C70.5395 11.855 70.0125 12.1908 69.3551 12.4046C68.6976 12.6183 67.8805 12.7252 66.904 12.7252ZM66.962 4.20611H65.5116V9.79389H66.962C67.4454 9.79389 67.7887 9.73791 67.9917 9.62595C68.2044 9.50382 68.3108 9.2341 68.3108 8.81679V5.18321C68.3108 4.7659 68.2044 4.50127 67.9917 4.38931C67.7887 4.26718 67.4454 4.20611 66.962 4.20611Z" stroke="#800ADD" stroke-width="2" mask="url(#path-1-outside-1_29_5)"/>
<path d="M81.6745 5.74809H78.1937V4.20611H81.9356L82.3707 1.27481H74.7128V12.7252H82.4577V9.79389H78.1937V8.40458H81.6745V5.74809Z" stroke="#800ADD" stroke-width="2" mask="url(#path-1-outside-1_29_5)"/>
<path d="M89.8217 8.54198H89.6622L88.1828 1.27481H84.5135L87.2111 12.7252H92.2873L94.985 1.27481H91.3156L89.8217 8.54198Z" stroke="#800ADD" stroke-width="2" mask="url(#path-1-outside-1_29_5)"/>
<path d="M99.5489 1.27481L102 7L99.5489 12.7252H96.7207L99.1718 7L96.7207 1.27481H99.5489Z" stroke="#800ADD" stroke-width="2" mask="url(#path-1-outside-1_29_5)"/>
</svg>
